<!DOCTYPE svg PUBLIC "-//W3C//DTD SVG 20010904//EN" "http://www.w3.org/TR/2001/REC-SVG-20010904/DTD/svg10.dtd">
<svg version="1.0" xmlns="http://www.w3.org/2000/svg" width="200px" height="200px" viewBox="0 0 2000 2000" preserveAspectRatio="xMidYMid meet">
<g id="layer101" fill="#393029" stroke="none">
 <path d="M0 1000 l0 -1000 1000 0 1000 0 0 1000 0 1000 -1000 0 -1000 0 0 -1000z"/>
 </g>
<g id="layer102" fill="#a07669" stroke="none">
 <path d="M145 1965 c4 -30 0 -38 -26 -57 -17 -13 -37 -35 -45 -50 -20 -38 -42 -58 -59 -52 -13 5 -15 -107 -15 -900 l0 -906 1000 0 1000 0 0 1000 0 1000 -930 0 -929 0 4 -35z m80 -122 c0 -13 -3 -23 -7 -23 -5 0 -8 9 -8 19 0 11 -6 21 -12 24 -7 3 -4 5 7 4 14 -1 20 -8 20 -24z m699 -62 c-13 -28 -40 -76 -60 -107 -20 -32 -47 -82 -60 -113 -23 -54 -24 -55 -18 -16 7 48 17 78 60 171 29 64 50 87 101 113 0 1 -10 -21 -23 -48z m501 -39 c-7 -8 -35 7 -35 18 0 6 7 6 20 -2 10 -7 17 -14 15 -16z m-335 -178 c17 -20 36 -46 41 -58 6 -12 22 -27 37 -34 24 -10 38 -29 59 -80 3 -8 -18 -1 -52 15 -53 26 -57 27 -69 11 -20 -27 -68 -33 -118 -14 -39 15 -44 20 -43 49 0 26 8 36 43 60 39 26 42 31 29 46 -19 21 -11 41 18 41 14 0 35 -14 55 -36z m285 -64 c3 -5 4 -10 1 -10 -3 0 -8 5 -11 10 -3 6 -4 10 -1 10 3 0 8 -4 11 -10z m55 -166 c0 -12 -9 -32 -21 -45 -16 -19 -19 -20 -15 -6 3 10 9 37 12 59 7 41 24 35 24 -8z m-359 -75 c43 -30 36 -37 -28 -27 -32 5 -66 7 -76 4 -18 -4 -18 -4 -2 14 15 16 29 22 68 29 5 0 22 -8 38 -20z m315 -71 c-13 -18 -16 -19 -16 -6 0 9 5 29 12 45 11 27 12 27 15 6 3 -13 -3 -33 -11 -45z m-721 -5 c-7 -39 -20 -61 -30 -51 -6 6 24 88 32 88 3 0 2 -17 -2 -37z m255 -7 c0 -16 42 -32 112 -41 60 -9 91 1 85 26 -6 22 1 24 27 4 10 -8 23 -12 27 -9 5 3 9 -7 9 -21 0 -15 -4 -23 -10 -20 -5 3 -27 1 -49 -6 -47 -14 -154 2 -212 32 -42 21 -49 35 -21 42 30 8 32 7 32 -7z m476 -84 c20 -19 17 -39 -5 -45 -16 -4 -20 2 -24 37 -4 42 5 76 11 42 2 -11 10 -26 18 -34z m-759 -29 c-35 -125 -33 -240 4 -417 24 -114 58 -172 129 -221 33 -23 57 -30 118 -35 42 -4 90 -12 105 -18 37 -16 175 -15 207 1 36 18 67 71 80 135 7 31 28 118 48 192 28 101 37 154 37 213 0 42 3 77 7 77 4 0 21 -13 38 -30 24 -23 30 -38 30 -70 0 -38 13 -54 23 -27 3 6 6 -4 6 -23 1 -19 9 -49 19 -65 13 -21 21 -61 26 -127 8 -106 -3 -147 -57 -220 -13 -18 -29 -53 -36 -76 -7 -24 -30 -63 -51 -86 -29 -31 -43 -58 -56 -111 -18 -71 -39 -109 -55 -99 -5 3 -21 -4 -35 -15 -40 -32 -56 -25 -22 9 16 17 34 28 38 25 5 -3 16 8 25 25 19 38 11 40 -10 3 l-16 -28 7 30 c3 17 8 48 9 70 l3 40 -23 -50 c-27 -61 -84 -99 -165 -111 -110 -16 -138 -11 -254 44 -5 3 -5 -1 0 -9 4 -8 -4 -4 -19 8 -15 11 -43 24 -62 27 -40 8 -103 65 -130 116 -9 17 -38 61 -65 98 -74 101 -92 158 -87 262 5 96 28 199 51 235 9 13 16 38 16 54 0 36 9 63 20 56 4 -2 10 14 14 36 6 34 10 40 26 36 15 -4 22 3 32 29 12 35 33 49 25 17z m408 -39 c63 -8 71 -12 48 -30 -23 -17 -141 -8 -165 14 -29 25 -21 34 25 28 23 -3 65 -8 92 -12z m-135 -220 c0 -8 4 -14 8 -14 4 0 8 -8 9 -17 1 -10 5 -30 9 -46 6 -24 3 -29 -30 -42 -19 -8 -62 -15 -95 -15 -49 0 -65 4 -88 24 l-28 25 82 -2 c66 -2 85 1 99 15 23 22 19 26 -47 38 -63 12 -109 29 -109 41 0 8 141 17 173 10 9 -2 17 -10 17 -17z m282 -16 c29 -6 57 -15 62 -19 11 -10 -100 -32 -130 -26 -13 2 -29 -2 -35 -9 -16 -19 44 -46 108 -48 61 -1 69 -13 25 -38 -34 -19 -103 -14 -156 13 -43 21 -53 42 -36 76 33 65 60 74 162 51z m155 -585 c-4 -3 -7 0 -7 7 0 7 3 10 7 7 3 -4 3 -10 0 -14z m-430 -170 c-4 -3 -10 -3 -14 0 -3 4 0 7 7 7 7 0 10 -3 7 -7z"/>
 <path d="M1380 307 c-17 -14 -26 -42 -10 -32 9 6 34 45 28 45 -2 0 -10 -6 -18 -13z"/>
 <path d="M1189 153 c-8 -14 -32 -39 -53 -55 -21 -15 -32 -28 -24 -28 22 0 66 37 84 72 8 16 14 32 11 34 -2 2 -10 -8 -18 -23z"/>
 </g>
<g id="layer103" fill="#97acca" stroke="none">
 <path d="M161 1978 c29 -56 105 -148 164 -198 67 -57 74 -73 51 -118 -19 -37 -43 -56 -96 -77 -60 -24 -116 -20 -157 11 -41 31 -76 44 -102 37 l-21 -5 0 -814 0 -814 611 0 c516 0 613 2 625 14 26 26 15 36 -18 16 -18 -11 -46 -20 -63 -20 l-30 0 35 18 c35 17 80 73 80 99 0 7 -16 -5 -36 -27 -33 -36 -41 -40 -84 -40 -26 0 -78 -9 -115 -21 -62 -19 -70 -19 -111 -5 -25 8 -62 28 -82 45 -21 16 -56 34 -78 40 -42 11 -108 71 -134 122 -7 13 -35 54 -62 91 -27 37 -59 93 -72 125 -20 52 -22 68 -15 153 8 105 29 197 52 231 10 13 14 33 10 50 -3 17 3 49 15 81 12 29 23 64 26 78 3 14 23 45 46 70 22 24 43 59 46 78 5 23 11 32 21 28 10 -4 27 22 60 92 42 88 47 106 51 185 4 74 10 100 36 155 18 37 38 81 44 97 12 29 104 105 162 135 14 7 35 22 48 33 l22 21 39 -38 c21 -20 43 -54 49 -75 7 -20 23 -48 38 -62 14 -13 32 -39 40 -57 7 -19 27 -51 44 -72 16 -21 30 -41 30 -45 0 -4 8 -19 19 -33 10 -15 32 -62 50 -106 33 -84 39 -149 17 -179 -8 -10 -12 -26 -9 -37 3 -10 -2 -29 -11 -42 -22 -31 -20 -57 7 -109 26 -50 77 -224 77 -266 0 -16 7 -36 14 -46 9 -11 17 -61 21 -131 7 -104 6 -116 -15 -157 -12 -24 -30 -53 -40 -64 -10 -11 -25 -43 -34 -72 -10 -28 -30 -68 -45 -87 -16 -20 -31 -54 -35 -77 -8 -49 -24 -81 -71 -143 l-35 -46 380 0 380 0 0 1000 0 1000 -925 0 -926 0 12 -22z m744 -138 c-4 -12 -9 -19 -12 -17 -3 3 -2 15 2 27 4 12 9 19 12 17 3 -3 2 -15 -2 -27z m-98 -30 c-7 -18 -19 -30 -29 -30 -10 0 -18 3 -18 6 0 6 51 54 57 54 1 0 -4 -13 -10 -30z m592 -24 c7 -8 26 -18 42 -21 16 -4 27 -10 24 -15 -7 -12 -109 -24 -140 -16 -27 7 -35 36 -10 36 8 0 15 4 15 9 0 5 10 12 23 14 12 2 25 5 28 6 4 0 12 -5 18 -13z"/>
 <path d="M970 1166 c0 -16 79 -28 94 -15 15 13 2 20 -48 25 -35 3 -46 1 -46 -10z"/>
 <path d="M967 891 c3 -12 10 -21 15 -21 13 0 6 32 -9 37 -7 3 -9 -3 -6 -16z"/>
 <path d="M1134 88 c-4 -7 -3 -8 4 -4 7 4 12 9 12 12 0 8 -9 4 -16 -8z"/>
 <path d="M850 66 c8 -9 31 -18 50 -21 35 -5 33 -4 -30 22 -31 12 -33 12 -20 -1z"/>
 </g>
<g id="layer104" fill="#cacdde" stroke="none">
 <path d="M177 1957 c57 -91 95 -134 173 -194 8 -6 42 -33 75 -60 62 -50 225 -143 252 -143 19 0 83 -66 83 -86 0 -8 4 -14 9 -14 6 0 7 32 4 76 -5 65 -3 79 14 103 39 51 95 176 98 216 2 28 8 41 20 44 16 3 17 -2 11 -39 l-7 -42 32 24 c17 12 49 35 72 49 23 14 44 33 45 43 3 16 -2 18 -37 14 -23 -2 -41 -1 -41 3 0 11 53 30 59 21 3 -5 17 -13 30 -17 14 -4 46 -28 73 -53 49 -46 60 -43 33 8 -9 17 -28 33 -49 40 -18 6 -42 20 -52 31 -16 18 -29 20 -104 18 -49 -1 -88 -6 -92 -13 -5 -8 -8 -7 -8 2 0 9 -36 12 -145 12 -117 0 -145 -3 -145 -14 0 -22 -48 -27 -55 -5 -6 18 -20 19 -191 19 l-184 -1 27 -42z m757 14 c3 -5 -7 -14 -23 -21 -27 -11 -43 -30 -46 -55 -1 -5 -15 -32 -33 -59 -17 -27 -33 -53 -34 -58 -3 -8 -79 6 -96 18 -7 4 22 53 30 48 4 -3 26 3 48 13 27 12 42 27 48 45 4 15 23 39 42 52 37 27 55 31 64 17z m-577 -18 c-4 -3 -7 0 -7 7 0 7 3 10 7 7 3 -4 3 -10 0 -14z m213 3 c0 -3 -4 -8 -10 -11 -5 -3 -10 -1 -10 4 0 6 5 11 10 11 6 0 10 -2 10 -4z m-150 -74 c0 -13 -12 -22 -22 -16 -10 6 -1 24 13 24 5 0 9 -4 9 -8z"/>
 <path d="M530 1990 c0 -7 3 -10 7 -7 3 4 3 10 0 14 -4 3 -7 0 -7 -7z"/>
 <path d="M1088 1993 c7 -3 16 -2 19 1 4 3 -2 6 -13 5 -11 0 -14 -3 -6 -6z"/>
 <path d="M1340 1968 c11 -18 28 -49 39 -68 26 -48 63 -81 96 -84 16 -2 31 -12 38 -27 7 -13 23 -26 37 -29 14 -3 26 -14 28 -24 3 -13 -1 -17 -15 -12 -51 15 -96 17 -148 6 -85 -18 -118 -7 -176 53 -26 28 -52 48 -56 44 -4 -4 9 -24 29 -45 20 -20 39 -47 43 -60 3 -12 22 -42 40 -67 96 -125 162 -301 138 -368 -11 -29 -6 -26 44 28 30 33 67 77 80 97 14 21 35 40 47 44 11 3 71 28 132 55 62 27 117 49 123 49 5 0 26 14 45 31 20 17 48 34 63 38 l28 7 3 181 2 180 -65 2 c-69 1 -82 -8 -39 -28 15 -6 24 -14 21 -17 -2 -3 -1 -21 3 -40 4 -18 6 -34 4 -34 -17 0 -55 27 -60 44 -4 12 -12 25 -18 29 -8 6 -8 10 1 13 7 3 9 12 6 20 -4 12 -49 14 -269 14 l-264 0 20 -32z m345 12 c-3 -5 -12 -10 -20 -10 -7 0 -16 -6 -18 -12 -4 -8 -6 -7 -6 4 -1 16 12 26 37 27 7 1 10 -3 7 -9z m-223 -42 c-7 -7 -12 -8 -12 -2 0 6 3 14 7 17 3 4 9 5 12 2 2 -3 -1 -11 -7 -17z m233 12 c-3 -5 -14 -10 -23 -10 -15 0 -15 2 -2 10 20 13 33 13 25 0z m95 -90 c0 -5 -4 -10 -10 -10 -5 0 -10 5 -10 10 0 6 5 10 10 10 6 0 10 -4 10 -10z m-130 -122 c0 -16 -19 -7 -34 14 -21 30 -7 46 15 17 10 -13 19 -27 19 -31z m164 -79 c-8 -13 -24 -1 -24 18 0 13 3 13 15 3 8 -7 12 -16 9 -21z"/>
 </g>

</svg>